<svg width="80" height="81" viewBox="0 0 80 81" fill="none" xmlns="http://www.w3.org/2000/svg">
<g clip-path="url(#clip0_40_431)">
<path d="M15.8071 72.2777C22.691 77.5028 31.2284 80.3993 39.8462 80.4333C40.6948 80.4333 41.4149 79.7208 41.4149 78.8709V71.7996C41.4149 70.9391 40.7191 70.2405 39.8585 70.2371C26.4834 70.1843 14.7141 61.113 11.2373 48.1778C7.92049 35.8372 12.9274 22.7004 23.4543 15.6748L25.9488 19.8283C26.6089 20.9273 28.3075 20.7697 28.7534 19.5667L34.143 5.02106C34.4808 4.10951 33.8675 3.0775 32.911 2.93313L17.3777 0.589574C16.0993 0.396921 15.1391 1.82987 15.8052 2.93906L18.2008 6.92759C11.5254 11.2758 6.19912 17.6524 3.10933 25.0341C-0.336863 33.2676 -0.931227 42.1856 1.39061 50.8243C3.71244 59.4631 8.69751 66.8815 15.8071 72.2777ZM5.99193 26.2407C9.02766 18.988 14.4041 12.788 21.1307 8.78318C21.864 8.34678 22.1102 7.36758 21.6709 6.63619L20.1925 4.17467L30.5454 5.73652L26.9533 15.4312L25.3118 12.698C24.8689 11.9608 23.9141 11.72 23.1744 12.1591C10.555 19.6528 4.4054 34.7979 8.21939 48.9889C11.9253 62.7768 24.161 72.5911 38.2898 73.3189V77.2679C30.8838 76.9159 23.6257 74.2891 17.6964 69.7885C11.1437 64.8149 6.5488 57.9767 4.40852 50.0131C2.26794 42.0496 2.81558 33.8293 5.99193 26.2407Z" fill="#EEC458"/>
<path d="M64.1926 8.61643C57.3085 3.39121 48.7714 0.494384 40.1535 0.459229C39.3048 0.459229 38.5847 1.17156 38.5847 2.0217V9.09298C38.5847 9.95344 39.2803 10.652 40.1407 10.6555C53.4858 10.71 65.2484 19.7559 68.7452 32.6537C68.971 33.4866 69.8302 33.979 70.6621 33.7529C71.495 33.5271 71.987 32.6688 71.7613 31.836C68.0341 18.0892 55.807 8.30253 41.7096 7.57395V3.6248C49.1157 3.97776 56.3739 6.6049 62.3033 11.1054C68.8565 16.0794 73.4517 22.9177 75.5918 30.8809C77.7321 38.844 77.1844 47.0645 74.0078 54.6537C70.9447 61.9717 65.5111 68.2066 58.7076 72.2097C57.9695 72.6439 57.7195 73.6267 58.1606 74.3609L59.4918 76.5773L49.4334 74.7393L52.6028 65.1075L54.52 68.2991C54.9608 69.0329 55.91 69.2757 56.6489 68.8429C64.884 64.0211 70.6086 55.8419 72.355 46.4025C72.512 45.5539 71.9514 44.7388 71.1028 44.5819C70.255 44.4255 69.4393 44.9855 69.2822 45.8341C67.7957 53.8689 63.128 60.8936 56.3826 65.3311L53.5249 60.5732C52.8514 59.4521 51.1104 59.646 50.7013 60.8893L45.9047 75.4657C45.6141 76.3495 46.1967 77.3246 47.1079 77.4912L62.3299 80.2725C63.6233 80.5091 64.6275 79.0586 63.9501 77.931L61.635 74.0761C68.388 69.725 73.7726 63.3097 76.8907 55.8603C80.3372 47.6262 80.9317 38.7081 78.6099 30.0696C76.2881 21.4315 71.3025 14.0131 64.1926 8.61643Z" fill="#EEC458"/>
<path d="M32.8329 22.5914C32.2629 23.2393 32.326 24.2265 32.9738 24.7965L38.0728 29.2824V37.6764L30.8034 33.4795L29.4679 26.8207C29.2984 25.9745 28.4744 25.4259 27.6287 25.596C26.7827 25.7657 26.2344 26.5891 26.4041 27.4352L27.1989 31.3984L22.2487 28.5403C21.5015 28.1089 20.5459 28.3649 20.1143 29.1122C19.6828 29.8595 19.9389 30.8151 20.6862 31.2465L25.6364 34.1046L21.8067 35.3979C20.989 35.674 20.5501 36.5605 20.8262 37.3782C21.0973 38.1808 22.0049 38.6292 22.8065 38.3586L29.2411 36.1857L36.5105 40.3826L29.2409 44.5798L22.8066 42.407C21.9888 42.1307 21.1024 42.5698 20.8264 43.3873C20.5503 44.2049 20.9892 45.0915 21.8067 45.3675L25.6363 46.6608L20.6861 49.5189C19.9387 49.9503 19.6826 50.9059 20.1142 51.6532C20.5378 52.387 21.5156 52.6484 22.2485 52.2251L27.1987 49.367L26.4039 53.3304C26.2342 54.1765 26.7825 54.9999 27.6286 55.1696C28.4595 55.3364 29.3014 54.7749 29.4678 53.9449L30.8032 47.2861L38.0726 43.0892V51.4832L32.9736 55.9692C32.3258 56.5392 32.2627 57.5266 32.8327 58.1744C33.4027 58.8222 34.3899 58.8854 35.0378 58.3153L38.0726 55.6453V61.3613C38.0726 62.2243 38.7721 62.9238 39.6351 62.9238C40.498 62.9238 41.1976 62.2243 41.1976 61.3613V55.6452L44.2325 58.3153C44.8708 58.8768 45.8744 58.8147 46.4376 58.1744C47.0076 57.5266 46.9445 56.5392 46.2967 55.9692L41.1976 51.4832V43.0892L48.4671 47.2863L49.8026 53.9451C49.9691 54.7757 50.8113 55.3364 51.6418 55.1697C52.4878 55 53.0361 54.1766 52.8664 53.3305L52.0716 49.3673L57.0218 52.2254C57.7554 52.6488 58.7329 52.3868 59.1562 51.6535C59.5877 50.9062 59.3316 49.9506 58.5843 49.5192L53.6341 46.6611L57.4637 45.3679C58.2812 45.0918 58.7202 44.2052 58.4441 43.3876C58.1681 42.5699 57.282 42.1312 56.4639 42.4071L50.0294 44.5799L42.76 40.3829L50.0294 36.186L56.464 38.3589C57.2662 38.6297 58.1734 38.1806 58.4443 37.3785C58.7204 36.561 58.2813 35.6743 57.4638 35.3982L53.6342 34.1049L58.5844 31.2469C59.3318 30.8155 59.5879 29.8599 59.1563 29.1125C58.7248 28.3652 57.7693 28.1091 57.022 28.5407L52.0718 31.3987L52.8666 27.4355C53.0363 26.5894 52.488 25.766 51.6419 25.5963C50.796 25.4268 49.9724 25.9749 49.8027 26.821L48.4673 33.4798L41.1977 37.6769V29.2828L46.2969 24.797C46.9447 24.227 47.0079 23.2398 46.4378 22.5919C45.868 21.9441 44.8803 21.8808 44.2327 22.4509L41.1977 25.121V19.4049C41.1977 18.5419 40.4982 17.8424 39.6352 17.8424C38.7723 17.8424 38.0728 18.5419 38.0728 19.4049V25.121L35.038 22.4511C34.3902 21.8803 33.4029 21.9436 32.8329 22.5914Z" fill="#EEC458"/>
<path d="M70.0166 40.0136C70.3888 40.5664 71.0902 40.8294 71.7329 40.6509C72.3875 40.4692 72.8625 39.865 72.8782 39.1845C72.9102 37.7956 71.1536 37.0534 70.1882 38.0664C69.6896 38.5897 69.6152 39.4103 70.0166 40.0136Z" fill="#EEC458"/>
</g>
<defs>
<clipPath id="clip0_40_431">
<rect width="80" height="80" fill="white" transform="translate(0 0.446289)"/>
</clipPath>
</defs>
</svg>
