<svg width="80" height="81" viewBox="0 0 80 81" fill="none" xmlns="http://www.w3.org/2000/svg">
<path d="M76.9231 1.98474H58.4615C57.612 1.98474 56.9231 2.67351 56.9231 3.5232V77.3694C56.9231 78.2189 57.612 78.9078 58.4615 78.9078H76.9231C77.7726 78.9078 78.4615 78.2189 78.4615 77.3694V3.5232C78.4615 2.67351 77.7726 1.98474 76.9231 1.98474ZM75.3846 75.8309H60V5.06166H75.3846V75.8309Z" fill="#EEC458"/>
<path d="M52.3077 1.98474H49.2308C48.3812 1.98474 47.6923 2.67351 47.6923 3.5232C47.6923 4.3729 48.3812 5.06166 49.2308 5.06166H52.3077C53.1572 5.06166 53.8461 4.3729 53.8461 3.5232C53.8461 2.67351 53.1572 1.98474 52.3077 1.98474Z" fill="#EEC458"/>
<path d="M43.0769 1.98474H40C39.1503 1.98474 38.4615 2.67351 38.4615 3.5232C38.4615 4.3729 39.1503 5.06166 40 5.06166H43.0769C43.9264 5.06166 44.6154 4.3729 44.6154 3.5232C44.6154 2.67351 43.9264 1.98474 43.0769 1.98474Z" fill="#EEC458"/>
<path d="M33.8462 1.98474H30.7692C29.9195 1.98474 29.2308 2.67351 29.2308 3.5232C29.2308 4.3729 29.9195 5.06166 30.7692 5.06166H33.8462C34.6959 5.06166 35.3846 4.3729 35.3846 3.5232C35.3846 2.67351 34.6959 1.98474 33.8462 1.98474Z" fill="#EEC458"/>
<path d="M24.6154 1.98474H21.5385C20.6888 1.98474 20 2.67351 20 3.5232C20 4.3729 20.6888 5.06166 21.5385 5.06166H24.6154C25.4651 5.06166 26.1538 4.3729 26.1538 3.5232C26.1538 2.67351 25.4651 1.98474 24.6154 1.98474Z" fill="#EEC458"/>
<path d="M12.3077 5.06166H15.3846C16.2343 5.06166 16.9231 4.3729 16.9231 3.5232C16.9231 2.67351 16.2343 1.98474 15.3846 1.98474H12.3077C11.458 1.98474 10.7692 2.67351 10.7692 3.5232C10.7692 4.3729 11.458 5.06166 12.3077 5.06166Z" fill="#EEC458"/>
<path d="M3.07691 5.06166H6.15384C7.00353 5.06166 7.6923 4.3729 7.6923 3.5232C7.6923 2.67351 7.00353 1.98474 6.15384 1.98474H3.07691C2.22722 1.98474 1.53845 2.67351 1.53845 3.5232C1.53845 4.3729 2.22722 5.06166 3.07691 5.06166Z" fill="#EEC458"/>
<path d="M52.3077 75.8309H49.2308C48.3812 75.8309 47.6923 76.5199 47.6923 77.3694C47.6923 78.2189 48.3812 78.9079 49.2308 78.9079H52.3077C53.1572 78.9079 53.8461 78.2189 53.8461 77.3694C53.8461 76.5199 53.1572 75.8309 52.3077 75.8309Z" fill="#EEC458"/>
<path d="M43.0769 75.8309H40C39.1503 75.8309 38.4615 76.5199 38.4615 77.3694C38.4615 78.2189 39.1503 78.9079 40 78.9079H43.0769C43.9264 78.9079 44.6154 78.2189 44.6154 77.3694C44.6154 76.5199 43.9264 75.8309 43.0769 75.8309Z" fill="#EEC458"/>
<path d="M33.8462 75.8309H30.7692C29.9195 75.8309 29.2308 76.5199 29.2308 77.3694C29.2308 78.2189 29.9195 78.9079 30.7692 78.9079H33.8462C34.6959 78.9079 35.3846 78.2189 35.3846 77.3694C35.3846 76.5199 34.6959 75.8309 33.8462 75.8309Z" fill="#EEC458"/>
<path d="M24.6154 75.8309H21.5385C20.6888 75.8309 20 76.5199 20 77.3694C20 78.2189 20.6888 78.9079 21.5385 78.9079H24.6154C25.4651 78.9079 26.1538 78.2189 26.1538 77.3694C26.1538 76.5199 25.4651 75.8309 24.6154 75.8309Z" fill="#EEC458"/>
<path d="M15.3846 75.8309H12.3077C11.458 75.8309 10.7692 76.5199 10.7692 77.3694C10.7692 78.2189 11.458 78.9079 12.3077 78.9079H15.3846C16.2343 78.9079 16.9231 78.2189 16.9231 77.3694C16.9231 76.5199 16.2343 75.8309 15.3846 75.8309Z" fill="#EEC458"/>
<path d="M6.15384 75.8309H3.07691C2.22722 75.8309 1.53845 76.5199 1.53845 77.3694C1.53845 78.2189 2.22722 78.9079 3.07691 78.9079H6.15384C7.00353 78.9079 7.6923 78.2189 7.6923 77.3694C7.6923 76.5199 7.00353 75.8309 6.15384 75.8309Z" fill="#EEC458"/>
<path d="M3.07691 49.677H21.5385C22.3881 49.677 23.0769 48.9881 23.0769 48.1385V32.7539C23.0769 31.9042 22.3881 31.2155 21.5385 31.2155H3.07691C2.22722 31.2155 1.53845 31.9042 1.53845 32.7539V48.1385C1.53845 48.9881 2.22722 49.677 3.07691 49.677ZM4.61538 34.2924H20V46.6001H4.61538V34.2924Z" fill="#EEC458"/>
<path d="M12.3077 28.1385C13.1574 28.1385 13.8461 27.4498 13.8461 26.6001V13.3911L17.3737 16.9187C17.9743 17.5193 18.9486 17.5195 19.5495 16.9187C20.1505 16.3179 20.1503 15.3438 19.5495 14.7428C13.0097 8.20423 13.304 8.44653 12.9606 8.28546C12.5725 8.103 12.1215 8.089 11.7186 8.25592C11.3414 8.41207 11.6457 8.16792 5.06599 14.743C4.46523 15.3438 4.46523 16.3179 5.06599 16.9188C5.66676 17.5198 6.64092 17.5196 7.24184 16.9188L10.7692 13.3911V26.6001C10.7692 27.4498 11.458 28.1385 12.3077 28.1385Z" fill="#EEC458"/>
<path d="M19.5494 63.9738C18.9486 63.3731 17.9745 63.3731 17.3735 63.9738L13.8461 67.5011V54.2924C13.8461 53.4428 13.1574 52.7539 12.3077 52.7539C11.458 52.7539 10.7692 53.4428 10.7692 54.2924V67.5011L7.24169 63.9736C6.64092 63.373 5.66676 63.373 5.06584 63.9736C4.46507 64.5744 4.46507 65.5485 5.06584 66.1494C11.5814 72.6636 11.3109 72.4459 11.6525 72.6058C12.0697 72.8045 12.5537 72.8007 12.9629 72.6058C13.3351 72.4316 13.0401 72.6398 19.5495 66.1494C20.1503 65.5487 20.1503 64.5745 19.5494 63.9738Z" fill="#EEC458"/>
</svg>
