<svg width="80" height="81" viewBox="0 0 80 81" fill="none" xmlns="http://www.w3.org/2000/svg">
<path d="M73.75 41.5713H6.25C4.875 41.5713 3.75 42.6963 3.75 44.0713V56.5713C3.75 57.9463 4.875 59.0713 6.25 59.0713H73.75C75.125 59.0713 76.25 57.9463 76.25 56.5713V44.0713C76.25 42.6963 75.125 41.5713 73.75 41.5713ZM73.75 56.5713H6.25V44.0713H8.75V45.3213C8.75 46.0088 9.3125 46.5713 10 46.5713C10.6875 46.5713 11.25 46.0088 11.25 45.3213V44.0713H13.75V47.8213C13.75 48.5088 14.3125 49.0713 15 49.0713C15.6875 49.0713 16.25 48.5088 16.25 47.8213V44.0713H18.75V45.3213C18.75 46.0088 19.3125 46.5713 20 46.5713C20.6875 46.5713 21.25 46.0088 21.25 45.3213V44.0713H23.75V47.8213C23.75 48.5088 24.3125 49.0713 25 49.0713C25.6875 49.0713 26.25 48.5088 26.25 47.8213V44.0713H28.75V45.3213C28.75 46.0088 29.3125 46.5713 30 46.5713C30.6875 46.5713 31.25 46.0088 31.25 45.3213V44.0713H33.75V47.8213C33.75 48.5088 34.3125 49.0713 35 49.0713C35.6875 49.0713 36.25 48.5088 36.25 47.8213V44.0713H38.75V45.3213C38.75 46.0088 39.3125 46.5713 40 46.5713C40.6875 46.5713 41.25 46.0088 41.25 45.3213V44.0713H43.75V47.8213C43.75 48.5088 44.3125 49.0713 45 49.0713C45.6875 49.0713 46.25 48.5088 46.25 47.8213V44.0713H48.75V45.3213C48.75 46.0088 49.3125 46.5713 50 46.5713C50.6875 46.5713 51.25 46.0088 51.25 45.3213V44.0713H53.75V47.8213C53.75 48.5088 54.3125 49.0713 55 49.0713C55.6875 49.0713 56.25 48.5088 56.25 47.8213V44.0713H58.75V45.3213C58.75 46.0088 59.3125 46.5713 60 46.5713C60.6875 46.5713 61.25 46.0088 61.25 45.3213V44.0713H63.75V47.8213C63.75 48.5088 64.3125 49.0713 65 49.0713C65.6875 49.0713 66.25 48.5088 66.25 47.8213V44.0713H68.75V45.3213C68.75 46.0088 69.3125 46.5713 70 46.5713C70.6875 46.5713 71.25 46.0088 71.25 45.3213V44.0713H73.75V56.5713Z" fill="#EEC458"/>
<path d="M13.9 33.7837C14.15 34.0337 14.4625 34.1462 14.7875 34.1462C15.1125 34.1462 15.425 34.0212 15.675 33.7837C16.1625 33.2962 16.1625 32.5087 15.675 32.0212L14.275 30.6212H65.7375L64.3375 32.0212C63.85 32.5087 63.85 33.2962 64.3375 33.7837C64.5875 34.0337 64.9 34.1462 65.225 34.1462C65.55 34.1462 65.8625 34.0212 66.1125 33.7837L69.65 30.2462C69.8875 30.0087 70.0125 29.6962 70.0125 29.3587C70.0125 29.0212 69.875 28.7087 69.65 28.4712L66.1125 24.9337C65.625 24.4462 64.8375 24.4462 64.35 24.9337C63.8625 25.4212 63.8625 26.2087 64.35 26.6962L65.75 28.0962H14.2625L15.6625 26.6962C16.15 26.2087 16.15 25.4212 15.6625 24.9337C15.175 24.4462 14.3875 24.4462 13.9 24.9337L10.3625 28.4712C10.125 28.7087 10 29.0212 10 29.3587C10 29.6962 10.1375 30.0087 10.3625 30.2462L13.9 33.7837Z" fill="#EEC458"/>
<path d="M75 21.8213C74.3125 21.8213 73.75 22.3838 73.75 23.0713V35.5713C73.75 36.2588 74.3125 36.8213 75 36.8213C75.6875 36.8213 76.25 36.2588 76.25 35.5713V23.0713C76.25 22.3838 75.6875 21.8213 75 21.8213Z" fill="#EEC458"/>
<path d="M5 36.8213C5.6875 36.8213 6.25 36.2588 6.25 35.5713V23.0713C6.25 22.3838 5.6875 21.8213 5 21.8213C4.3125 21.8213 3.75 22.3838 3.75 23.0713V35.5713C3.75 36.2588 4.3125 36.8213 5 36.8213Z" fill="#EEC458"/>
</svg>
