<svg width="46" height="46" viewBox="0 0 46 46" fill="none" xmlns="http://www.w3.org/2000/svg">
<circle opacity="0.15" cx="22.5015" cy="22.9531" r="22.5" fill="#EEC458"/>
<path d="M30.4741 26.1797C30.8257 26.3203 31.0015 26.5781 31.0015 26.9531C31.0015 27.0234 30.9897 27.082 30.9663 27.1289L30.1226 30.7852C30.0991 30.9023 30.0405 31.0078 29.9468 31.1016C29.8765 31.2188 29.7827 31.3008 29.6655 31.3477C29.5483 31.418 29.4312 31.4531 29.314 31.4531C24.814 31.4531 20.9702 29.8594 17.7827 26.6719C14.5952 23.4844 13.0015 19.6406 13.0015 15.1406C13.0015 15.0234 13.0249 14.9062 13.0718 14.7891C13.1421 14.6719 13.2241 14.5781 13.3179 14.5078C13.4351 14.4141 13.5522 14.3555 13.6694 14.332L17.3257 13.4883C17.3726 13.4648 17.4312 13.4531 17.5015 13.4531C17.8765 13.4531 18.1343 13.6289 18.2749 13.9805L19.9624 17.918C20.0093 18.0117 20.0327 18.1172 20.0327 18.2344C20.0327 18.4922 19.9272 18.7148 19.7163 18.9023L17.6069 20.625C18.146 21.7969 19.0249 22.9922 20.2437 24.2109C21.4624 25.4297 22.6577 26.3086 23.8296 26.8477L25.5522 24.7383C25.7397 24.5273 25.9624 24.4219 26.2202 24.4219C26.3374 24.4219 26.4429 24.4453 26.5366 24.4922L30.4741 26.1797Z" fill="#EEC458"/>
</svg>
