<svg width="46" height="46" viewBox="0 0 46 46" fill="none" xmlns="http://www.w3.org/2000/svg">
<circle opacity="0.15" cx="22.55" cy="23.3281" r="22.5" fill="#52677C"/>
<path d="M30.5227 26.5547C30.8743 26.6953 31.05 26.9531 31.05 27.3281C31.05 27.3984 31.0383 27.457 31.0149 27.5039L30.1711 31.1602C30.1477 31.2773 30.0891 31.3828 29.9954 31.4766C29.925 31.5938 29.8313 31.6758 29.7141 31.7227C29.5969 31.793 29.4797 31.8281 29.3625 31.8281C24.8625 31.8281 21.0188 30.2344 17.8313 27.0469C14.6438 23.8594 13.05 20.0156 13.05 15.5156C13.05 15.3984 13.0735 15.2812 13.1204 15.1641C13.1907 15.0469 13.2727 14.9531 13.3665 14.8828C13.4836 14.7891 13.6008 14.7305 13.718 14.707L17.3743 13.8633C17.4211 13.8398 17.4797 13.8281 17.55 13.8281C17.925 13.8281 18.1829 14.0039 18.3235 14.3555L20.011 18.293C20.0579 18.3867 20.0813 18.4922 20.0813 18.6094C20.0813 18.8672 19.9758 19.0898 19.7649 19.2773L17.6555 21C18.1946 22.1719 19.0735 23.3672 20.2922 24.5859C21.511 25.8047 22.7063 26.6836 23.8782 27.2227L25.6008 25.1133C25.7883 24.9023 26.011 24.7969 26.2688 24.7969C26.386 24.7969 26.4915 24.8203 26.5852 24.8672L30.5227 26.5547Z" fill="#52677C"/>
</svg>
