<svg width="71" height="71" viewBox="0 0 71 71" fill="none" xmlns="http://www.w3.org/2000/svg">
<circle opacity="0.9" cx="35.5" cy="35.8247" r="35" fill="#EEC458"/>
<path d="M25.2537 22.8283V48.8611C25.2537 50.8462 27.4398 52.0524 29.1234 50.9719L49.5778 37.9554C49.9359 37.7288 50.2308 37.4153 50.4352 37.044C50.6396 36.6728 50.7468 36.2559 50.7468 35.8321C50.7468 35.4083 50.6396 34.9914 50.4352 34.6202C50.2308 34.2489 49.9359 33.9354 49.5778 33.7088L29.1234 20.7175C28.7444 20.4724 28.3062 20.3341 27.8552 20.3172C27.4041 20.3003 26.9569 20.4055 26.5606 20.6216C26.1643 20.8378 25.8337 21.1569 25.6037 21.5453C25.3737 21.9336 25.2528 22.3769 25.2537 22.8283Z" fill="white"/>
</svg>
