<svg width="29" height="29" viewBox="0 0 29 29" fill="none" xmlns="http://www.w3.org/2000/svg">
<g clip-path="url(#clip0_40_760)">
<path d="M28.0606 0.462803C27.7403 0.142445 27.2208 0.142445 26.9005 0.462803L24.5112 2.8521C24.3643 2.7821 24.2093 2.72571 24.0475 2.6853L16.6225 0.85092C15.7888 0.642506 14.8932 0.890513 14.2855 1.49825L1.02064 14.7412C0.0611529 15.7008 0.0611529 17.2621 1.02064 18.2217L10.3018 27.5028C11.2613 28.4624 12.8227 28.4624 13.7823 27.5028L27.0253 14.238C27.633 13.6302 27.8811 12.7347 27.6725 11.9008L25.8382 4.47593C25.7977 4.31416 25.7414 4.15912 25.6714 4.01223L28.0607 1.62294C28.381 1.30258 28.381 0.783162 28.0606 0.462803ZM26.0808 12.2988C26.1503 12.5768 26.0676 12.8753 25.865 13.0779L12.622 26.3427C12.3022 26.6625 11.7817 26.6625 11.4618 26.3427L2.18073 17.0615C1.86086 16.7417 1.86086 16.2212 2.18073 15.9013L15.4456 2.65839C15.6007 2.50324 15.8122 2.41842 16.0275 2.41842C16.0934 2.41842 16.1596 2.42635 16.2246 2.4426L23.1989 4.16432L21.2233 6.1399C20.3087 5.70426 19.1789 5.86406 18.4228 6.62016C17.4632 7.57976 17.4632 9.14103 18.4228 10.1006C18.9025 10.5804 19.5328 10.8203 20.163 10.8203C20.7931 10.8203 21.4234 10.5805 21.9031 10.1006C22.6594 9.34442 22.8191 8.21468 22.3834 7.30004L24.359 5.32446L26.0808 12.2988ZM20.743 8.94055C20.4232 9.26036 19.9028 9.26042 19.5829 8.94055C19.2631 8.62074 19.2631 8.10022 19.5829 7.78041C19.7429 7.62045 19.9529 7.54055 20.163 7.54055C20.373 7.54055 20.5831 7.62051 20.7429 7.78036L20.743 7.78041L20.743 7.78047C21.0629 8.10028 21.0629 8.62074 20.743 8.94055Z" fill="#EEC458"/>
<path d="M13.7819 10.1006C12.8223 9.1411 11.261 9.1411 10.3014 10.1006C9.34191 11.0602 9.34191 12.6215 10.3014 13.5811C11.2609 14.5407 12.8223 14.5407 13.7819 13.5811C14.7415 12.6215 14.7415 11.0602 13.7819 10.1006ZM12.6218 12.4209C12.3019 12.7408 11.7815 12.7408 11.4617 12.4209C11.1418 12.101 11.1417 11.5806 11.4616 11.2608C11.7815 10.941 12.3019 10.9409 12.6218 11.2608C12.9416 11.5806 12.9416 12.101 12.6218 12.4209Z" fill="#EEC458"/>
<path d="M14.9421 18.2215C13.9803 17.2597 12.4236 17.2596 11.4616 18.2215C10.502 19.1811 10.502 20.7424 11.4616 21.702C12.4235 22.6638 13.9802 22.6639 14.9421 21.702C15.9017 20.7424 15.9017 19.1811 14.9421 18.2215ZM13.7819 20.5418C13.4614 20.8624 12.9424 20.8625 12.6218 20.5418C12.302 20.222 12.302 19.7015 12.6218 19.3817C12.9424 19.0611 13.4613 19.0611 13.7819 19.3817C14.1017 19.7015 14.1017 20.2219 13.7819 20.5418Z" fill="#EEC458"/>
<path d="M18.6579 15.2306C18.6078 14.7803 18.2022 14.4558 17.7519 14.5058L7.31067 15.666C6.86038 15.716 6.53586 16.1216 6.5859 16.5719C6.63255 16.9914 6.98769 17.3018 7.40025 17.3018C7.43049 17.3018 7.46112 17.3001 7.49185 17.2967L17.9332 16.1365C18.3834 16.0865 18.708 15.6809 18.6579 15.2306Z" fill="#EEC458"/>
</g>
<defs>
<clipPath id="clip0_40_760">
<rect width="28" height="28" fill="white" transform="translate(0.300781 0.222412)"/>
</clipPath>
</defs>
</svg>
