<svg width="18" height="18" viewBox="0 0 18 18" fill="none" xmlns="http://www.w3.org/2000/svg">
<g clip-path="url(#clip0_40_628)">
<path d="M15.186 16.2354C12.5847 18.3589 4.46227 18.3589 1.91405 16.2354C-0.687248 14.1119 -0.421814 5.03393 1.91405 2.64498C4.24992 0.256035 12.8501 0.256035 15.186 2.64498C17.5219 5.03393 17.7873 14.112 15.186 16.2354Z" fill="#EEC458"/>
<g opacity="0.2">
<path d="M8.60318 12.5194C6.26731 14.3774 3.66601 15.333 1.22398 15.3861C-0.581013 12.307 -0.209383 4.82165 1.91413 2.64506C3.82529 0.680819 9.82419 0.309189 13.2749 1.5302C14.1243 5.034 12.3724 9.49334 8.60318 12.5194Z" fill="#F5F8FA"/>
</g>
<path d="M7.32896 14.059C6.95733 14.059 6.58574 13.8997 6.37338 13.5812L3.40049 9.7589C2.97578 9.22803 3.08197 8.48481 3.61284 8.0601C4.14371 7.63539 4.88693 7.74159 5.31164 8.27246L7.32896 10.8738L11.7883 5.08721C12.213 4.55634 12.9563 4.45014 13.4871 4.87485C14.018 5.29956 14.1242 6.04279 13.6995 6.57365L8.28454 13.5812C8.0191 13.8467 7.70059 14.059 7.32896 14.059Z" fill="#F5F8FA"/>
</g>
<defs>
<clipPath id="clip0_40_628">
<rect width="17" height="17" fill="white" transform="translate(0.0500488 0.828125)"/>
</clipPath>
</defs>
</svg>
